# xmcd
#
# Track frame offsets: 
#        225
#        9484
#        28931
#        71301
#        85477
#        109705
#        118921
#        139095
#        150188
#        159250
#        176203
#        192268
#        202634
#
# Disc length: 2928 seconds
#
# Revision: 0
# Processed by: cddbd v1.5.2PL0 Copyright (c) Steve Scherf et al.
# Submitted via: ExactAudioCopy v0.99pb5
#
DISCID=a20b6d0d
DTITLE=Richard Smerin - No More
DYEAR=2011
DGENRE=Blues
TTITLE0=On The Spot
TTITLE1=Jackie Ann
TTITLE2=Poor Boy Richard
TTITLE3=Hoe That Row
TTITLE4=Eye For An Eye
TTITLE5=Isolated Man
TTITLE6=Don't Put Your Child Away
TTITLE7=Word I Crave
TTITLE8=Ain't You Glad
TTITLE9=No Way Out
TTITLE10=What It Is
TTITLE11=You're Gone
TTITLE12=Lord Have Mercy
EXTD=
EXTT0=
EXTT1=
EXTT2=
EXTT3=
EXTT4=
EXTT5=
EXTT6=
EXTT7=
EXTT8=
EXTT9=
EXTT10=
EXTT11=
EXTT12=
PLAYORDER=
